{"title":"Super.8.2011.720p.BRRip.x264.Feel-Free","uid":6767089,"size":2860244749,"categoryP":"video","categoryS":"hd___movies","magnet":"?xt=urn:btih:16aa90d6ee52676bcdc6760bd76cced38016d222&amp;dn=Super.8.2011.720p.BRRip.x264.Feel-Free&amp;tr=udp%3A%2F%2Ftracker.openbittorrent.com%3A80&amp;tr=udp%3A%2F%2Fopen.demonii.com%3A1337&amp;tr=udp%3A%2F%2Ftracker.coppersurfer.tk%3A6969&amp;tr=udp%3A%2F%2Fexodus.desync.com%3A6969","seeders":0,"leechers":0,"uploader":"Test_Verify","files":-1,"time":1319443353,"description":"Genre:Mystery | Sci-Fi | Thriller\nLanguage:English\nIMDb:http://www.imdb.com/title/tt1650062/\nSource:BluRay.1080p Thanks!\n\nFormat : MPEG-4\nFormat profile : Base Media\nCodec ID : isom\nFile size : 2.66 GiB\nDuration : 1h 51mn\nOverall bit rate : 3 404 Kbps\n\nVideo\nID : 1\nFormat : AVC\nFormat/Info : Advanced Video Codec\nFormat profile : &lt;a class=&quot;__cf_email__&quot; href=&quot;/cdn-cgi/l/email-protection&quot; data-cfemail=&quot;d39bbab4bb939fe7fde2&quot;&gt;[email&amp;#160;protected]&lt;/a&gt;&lt;script cf-hash='f9e31' type=&quot;text/javascript&quot;&gt;\n/* &lt;![CDATA[ */!function(){try{var t=&quot;currentScript&quot;in document?document.currentScript:function(){for(var t=document.getElementsByTagName(&quot;script&quot;),e=t.length;e--;)if(t[e].getAttribute(&quot;cf-hash&quot;))return t[e]}();if(t&amp;&amp;t.previousSibling){var e,r,n,i,c=t.previousSibling,a=c.getAttribute(&quot;data-cfemail&quot;);if(a){for(e=&quot;&quot;,r=parseInt(a.substr(0,2),16),n=2;a.length-n;n+=2)i=parseInt(a.substr(n,2),16)^r,e+=String.fromCharCode(i);e=document.createTextNode(e),c.parentNode.replaceChild(e,c)}}}catch(u){}}();/* ]]&gt; */&lt;/script&gt;\nFormat settings, CABAC : Yes\nFormat settings, ReFrames : 3 frames\nCodec ID : avc1\nCodec ID/Info : Advanced Video Coding\nDuration : 1h 51mn\nBit rate mode : Variable\nBit rate : 3 000 Kbps\nMaximum bit rate : 10.9 Mbps\nWidth : 1 280 pixels\nHeight : 528 pixels\nDisplay aspect ratio : 2.40:1\nFrame rate mode : Constant\nFrame rate : 23.976 fps\nColor space : YUV\nChroma subsampling : 4:2:0\nBit depth : 8 bits\nScan type : Progressive\nBits/(Pixel*Frame) : 0.185\nStream size : 2.32 GiB (87%)\nWriting library : x264\n\n\nAudio\nID : 2\nFormat : AAC\nFormat/Info : Advanced Audio Codec\nFormat version : Version 4\nFormat profile : LC\nFormat settings, SBR : No\nCodec ID : 40\nDuration : 1h 51mn\nBit rate mode : Variable\nBit rate : 429 Kbps\nMaximum bit rate : 541 Kbps\nChannel(s) : 6 channels\nChannel positions : Front: L C R, Side: L R, LFE\nSampling rate : 48.0 KHz\nStream size : 343 MiB (13%)\n\n\n\nPlot:\nAfter witnessing a mysterious train crash, a group of friends in the summer of 1979 begin noticing strange happenings going around in their small town, and begin to investigate into the creepy phenomenon.\n\n\n\nScreens :\n &lt;a href=&quot;\nhttp://www.pix2links.com/image/16NZ.png&quot; rel=&quot;nofollow&quot; target=&quot;_NEW&quot;&gt;\nhttp://www.pix2links.com/image/16NZ.png&lt;/a&gt;\n &lt;a href=&quot;\nhttp://www.pix2links.com/image/DZ6s5.png&quot; rel=&quot;nofollow&quot; target=&quot;_NEW&quot;&gt;\nhttp://www.pix2links.com/image/DZ6s5.png&lt;/a&gt;\n &lt;a href=&quot;\nhttp://www.pix2links.com/image/upaAk.png&quot; rel=&quot;nofollow&quot; target=&quot;_NEW&quot;&gt;\nhttp://www.pix2links.com/image/upaAk.png&lt;/a&gt;\n &lt;a href=&quot;\nhttp://www.pix2links.com/image/cJl8D.png&quot; rel=&quot;nofollow&quot; target=&quot;_NEW&quot;&gt;\nhttp://www.pix2links.com/image/cJl8D.png&lt;/a&gt;\n &lt;a href=&quot;\nhttp://www.pix2links.com/image/vZpyP.png&quot; rel=&quot;nofollow&quot; target=&quot;_NEW&quot;&gt;\nhttp://www.pix2links.com/image/vZpyP.png&lt;/a&gt;","torrent":{"xt":"urn:btih:16aa90d6ee52676bcdc6760bd76cced38016d222","amp;dn":"Super.8.2011.720p.BRRip.x264.Feel-Free","amp;tr":["udp%3A%2F%2Ftracker.openbittorrent.com%3A80","udp%3A%2F%2Fopen.demonii.com%3A1337","udp%3A%2F%2Ftracker.coppersurfer.tk%3A6969","udp%3A%2F%2Fexodus.desync.com%3A6969"],"infoHash":"16aa90d6ee52676bcdc6760bd76cced38016d222","infoHashBuffer":{"type":"Buffer","data":[22,170,144,214,238,82,103,107,205,198,118,11,215,108,206,211,128,22,210,34]},"announce":[],"urlList":[]}}